<?xml version="1.0" encoding="UTF-8"?>
<svg width="48px" height="48px" viewBox="0 0 48 48" version="1.1" xmlns="http://www.w3.org/2000/svg" xmlns:xlink="http://www.w3.org/1999/xlink">
    <!-- Generator: Sketch 42 (36781) - http://www.bohemiancoding.com/sketch -->
    <title>status/icon-profile-unverified-big</title>
    <desc>Created with Sketch.</desc>
    <defs>
        <path d="M2,10.9496 L2,46 L36.3904,46 C41.16,46 46,42.26 46,36.4696 L46,2 L11.6096,2 C4.9304,2 2,8.0896 2,10.9496 Z" id="path-1"></path>
        <mask id="mask-2" maskContentUnits="userSpaceOnUse" maskUnits="objectBoundingBox" x="-2" y="-2" width="48" height="48">
            <rect x="0" y="0" width="48" height="48" fill="white"></rect>
            <use xlink:href="#path-1" fill="black"></use>
        </mask>
        <filter x="-50%" y="-50%" width="200%" height="200%" filterUnits="objectBoundingBox" id="filter-3">
            <feOffset dx="0" dy="6" in="SourceAlpha" result="shadowOffsetOuter1"></feOffset>
            <feGaussianBlur stdDeviation="6" in="shadowOffsetOuter1" result="shadowBlurOuter1"></feGaussianBlur>
            <feColorMatrix values="0 0 0 0 0   0 0 0 0 0   0 0 0 0 0  0 0 0 0.118857563 0" type="matrix" in="shadowBlurOuter1" result="shadowMatrixOuter1"></feColorMatrix>
            <feMerge>
                <feMergeNode in="shadowMatrixOuter1"></feMergeNode>
                <feMergeNode in="SourceGraphic"></feMergeNode>
            </feMerge>
        </filter>
    </defs>
    <g id="Symbols" stroke="none" stroke-width="1" fill="none" fill-rule="evenodd">
        <g id="status/icon-profile-unverified-big">
            <g id="Shape-Copy-20" fill-rule="nonzero">
                <use fill="#9B9B9B" fill-rule="evenodd" xlink:href="#path-1"></use>
                <use stroke="#FFFFFF" mask="url(#mask-2)" stroke-width="4" xlink:href="#path-1"></use>
            </g>
            <g id="Group-2" filter="url(#filter-3)" transform="translate(15.000000, 10.000000)" fill="#FFFFFF">
                <path d="M0.522000779,8.39615393 L4.98061044,8.39615393 C5.13239289,6.04352586 6.70713588,4.5446741 9.15462799,4.5446741 C11.5452017,4.5446741 13.1389175,6.00558025 13.1389175,8.01669779 C13.1389175,9.89500569 12.3420596,10.9195373 9.9894315,12.3424978 C7.37118413,13.8792952 6.27076132,15.5868478 6.44151658,18.3948233 L6.46048939,19.7418926 L10.8621806,19.7418926 L10.8621806,18.6414697 C10.8621806,16.744189 11.5641745,15.7576031 14.0496122,14.3156697 C16.629914,12.7788724 18.0718473,10.748782 18.0718473,7.84594253 C18.0718473,3.67192498 14.5998236,0.674221463 9.40127448,0.674221463 C3.76635079,0.674221463 0.673783236,3.93754428 0.522000779,8.39615393 Z" id="?"></path>
                <path d="M8.71825343,28.6591119 C10.2550508,28.6591119 11.4693105,27.463825 11.4693105,25.9649733 C11.4693105,24.4661215 10.2550508,23.2898075 8.71825343,23.2898075 C7.18145606,23.2898075 5.9482236,24.4661215 5.9482236,25.9649733 C5.9482236,27.463825 7.18145606,28.6591119 8.71825343,28.6591119 Z" id="?"></path>
            </g>
        </g>
    </g>
</svg>